<svg width="21" height="21" viewBox="0 0 21 21" fill="none" xmlns="http://www.w3.org/2000/svg">
<path d="M18.8334 7.05941C18.8334 7.60941 18.3834 8.05941 17.8334 8.05941H3.16675C2.61675 8.05941 2.16675 7.60941 2.16675 7.05941V7.05107C2.16675 5.14274 3.70841 3.60107 5.61675 3.60107H15.3751C17.2834 3.60107 18.8334 5.15107 18.8334 7.05941Z" fill="#0F6849"/>
<path d="M2.16675 10.3091V14.4841C2.16675 16.3924 3.70841 17.9341 5.61675 17.9341H15.3751C17.2834 17.9341 18.8334 16.3841 18.8334 14.4757V10.3091C18.8334 9.75908 18.3834 9.30908 17.8334 9.30908H3.16675C2.61675 9.30908 2.16675 9.75908 2.16675 10.3091ZM7.16675 15.1424H5.50008C5.15841 15.1424 4.87508 14.8591 4.87508 14.5174C4.87508 14.1757 5.15841 13.8924 5.50008 13.8924H7.16675C7.50841 13.8924 7.79175 14.1757 7.79175 14.5174C7.79175 14.8591 7.50841 15.1424 7.16675 15.1424ZM12.5834 15.1424H9.25008C8.90841 15.1424 8.62508 14.8591 8.62508 14.5174C8.62508 14.1757 8.90841 13.8924 9.25008 13.8924H12.5834C12.9251 13.8924 13.2084 14.1757 13.2084 14.5174C13.2084 14.8591 12.9251 15.1424 12.5834 15.1424Z" fill="#0F6849"/>
</svg>
