<svg width="14" height="18" viewBox="0 0 14 18" fill="none" xmlns="http://www.w3.org/2000/svg">
<path d="M10.5335 0.434082H3.46683C1.16683 0.434082 0.333496 1.26742 0.333496 3.60908V13.9257C0.333496 16.2674 1.16683 17.1007 3.46683 17.1007H10.5252C12.8335 17.1007 13.6668 16.2674 13.6668 13.9257V3.60908C13.6668 1.26742 12.8335 0.434082 10.5335 0.434082ZM7.00016 14.8507C6.20016 14.8507 5.54183 14.1924 5.54183 13.3924C5.54183 12.5924 6.20016 11.9341 7.00016 11.9341C7.80016 11.9341 8.4585 12.5924 8.4585 13.3924C8.4585 14.1924 7.80016 14.8507 7.00016 14.8507ZM8.66683 3.97575H5.3335C4.99183 3.97575 4.7085 3.69242 4.7085 3.35075C4.7085 3.00908 4.99183 2.72575 5.3335 2.72575H8.66683C9.0085 2.72575 9.29183 3.00908 9.29183 3.35075C9.29183 3.69242 9.0085 3.97575 8.66683 3.97575Z" fill="#0F6849"/>
</svg>
