<svg width="21" height="21" viewBox="0 0 21 21" fill="none" xmlns="http://www.w3.org/2000/svg">
<path d="M18.8332 7.05941C18.8332 7.60941 18.3832 8.05941 17.8332 8.05941H3.1665C2.6165 8.05941 2.1665 7.60941 2.1665 7.05941V7.05107C2.1665 5.14274 3.70817 3.60107 5.6165 3.60107H15.3748C17.2832 3.60107 18.8332 5.15107 18.8332 7.05941Z" fill="#0F6849"/>
<path d="M2.1665 10.3091V14.4841C2.1665 16.3924 3.70817 17.9341 5.6165 17.9341H15.3748C17.2832 17.9341 18.8332 16.3841 18.8332 14.4757V10.3091C18.8332 9.75908 18.3832 9.30908 17.8332 9.30908H3.1665C2.6165 9.30908 2.1665 9.75908 2.1665 10.3091ZM7.1665 15.1424H5.49984C5.15817 15.1424 4.87484 14.8591 4.87484 14.5174C4.87484 14.1757 5.15817 13.8924 5.49984 13.8924H7.1665C7.50817 13.8924 7.7915 14.1757 7.7915 14.5174C7.7915 14.8591 7.50817 15.1424 7.1665 15.1424ZM12.5832 15.1424H9.24984C8.90817 15.1424 8.62484 14.8591 8.62484 14.5174C8.62484 14.1757 8.90817 13.8924 9.24984 13.8924H12.5832C12.9248 13.8924 13.2082 14.1757 13.2082 14.5174C13.2082 14.8591 12.9248 15.1424 12.5832 15.1424Z" fill="#0F6849"/>
</svg>
